# xmcd
#
# Track frame offsets: 
#        150
#        14250
#        32175
#        52725
#        70200
#        82275
#
# Disc length: 1269 seconds
#
# Revision: 0
# Processed by: cddbd v1.5.2PL0 Copyright (c) Steve Scherf et al.
# Submitted via: ExactAudioCopyFreeDBPlugin 1.0
#
DISCID=4804f306
DTITLE=M. Espy Trio - Always Blue
DYEAR=2012
DGENRE=Blues
TTITLE0=Always There
TTITLE1=Get 'em Going
TTITLE2=If You Want Me To Stay
TTITLE3=Chitlins Con Carne
TTITLE4=Miss You
TTITLE5=Greenie's Shadow
EXTD=
EXTT0=
EXTT1=
EXTT2=
EXTT3=
EXTT4=
EXTT5=
PLAYORDER=
